<svg xmlns="http://www.w3.org/2000/svg" width="520" height="123" viewBox="0 0 520 123">
  <path id="Form_1" data-name="Form 1" d="M194.945,48.017c-0.59-3.294-3.289-8.449-10.876-8.449-5.651,0-9.362,3.635-9.362,7.6,0,3.294,2.108,5.912,6.492,6.757l8.349,1.606c10.88,2.111,16.7,9.205,16.7,17.651,0,9.21-7.677,18.5-21.587,18.5-15.854,0-22.854-10.22-23.781-18.748l10.793-2.875c0.5,5.914,4.639,11.234,13.07,11.234,6.241,0,9.7-3.126,9.7-7.348,0-3.463-2.616-6.166-7.253-7.095l-8.346-1.688c-9.53-1.943-15.686-8.109-15.686-17.146,0-10.643,9.53-18.752,20.828-18.752,14.5,0,20.07,8.783,21.419,15.54Zm55.094,30.492c-2.108,7.18-8.686,13.174-18.889,13.174-11.384,0-21.419-8.191-21.419-22.211,0-13.263,9.781-21.877,20.406-21.877,12.819,0,20.492,8.191,20.492,21.537,0,1.606-.168,3.294-0.168,3.463H220.779c0.25,5.491,4.888,9.46,10.457,9.46,5.225,0,8.095-2.617,9.444-6.334Zm-10.457-13.6c-0.168-4.137-2.867-8.191-9.276-8.191a8.986,8.986,0,0,0-9.277,8.191h18.553ZM254.6,90.418V48.86h10.708v5.069c2.279-4.054,7.591-6.252,12.142-6.252,5.652,0,10.2,2.452,12.315,6.926,3.285-5.066,7.673-6.926,13.152-6.926,7.673,0,15.01,4.645,15.01,15.8V90.418H307.051V65.755c0-4.478-2.193-7.857-7.336-7.857-4.806,0-7.673,3.717-7.673,8.194V90.418H280.908V65.755c0-4.478-2.275-7.857-7.332-7.857-4.892,0-7.759,3.635-7.759,8.194V90.418H254.6Zm67.982,16.048V48.86h10.879v5.069c1.854-3.209,6.492-6,12.73-6,12.142,0,19.143,9.291,19.143,21.623,0,12.586-7.842,21.878-19.562,21.878-5.737,0-9.953-2.28-11.975-5.069v20.1H322.583ZM344,57.984c-5.734,0-10.372,4.309-10.372,11.657s4.638,11.74,10.372,11.74,10.285-4.309,10.285-11.74C354.287,62.292,349.735,57.984,344,57.984Zm25.93,32.434V29.266h11.215V90.418H369.932ZM392.39,28.252a6.926,6.926,0,1,1-6.914,7.012A6.916,6.916,0,0,1,392.39,28.252Zm-5.565,62.166V48.86h11.216V90.418H386.825ZM414.619,69.64c0,7.517,4.892,11.74,10.625,11.74a9.493,9.493,0,0,0,9.527-7.012l9.867,3.295c-1.854,6.926-8.349,14.02-19.394,14.02-12.228,0-21.84-9.288-21.84-22.043,0-12.84,9.444-22.046,21.5-22.046,11.3,0,17.708,7.008,19.476,14.02L434.353,65c-1.013-3.463-3.629-7.012-9.194-7.012C419.426,57.984,414.619,62.123,414.619,69.64Zm72.9,8.869c-2.108,7.18-8.686,13.174-18.889,13.174-11.384,0-21.419-8.191-21.419-22.211,0-13.263,9.781-21.877,20.406-21.877,12.819,0,20.492,8.191,20.492,21.537,0,1.606-.168,3.294-0.168,3.463H458.264c0.251,5.491,4.889,9.46,10.457,9.46,5.225,0,8.095-2.617,9.444-6.334Zm-10.457-13.6c-0.169-4.137-2.867-8.191-9.277-8.191a8.983,8.983,0,0,0-9.275,8.191h18.552Zm16.591-29.065V49.568h-3.3V35.844h-5.311V32.732h13.914v3.112h-5.308Zm23.119,13.724v-11.8l-4.837,11.8h-2.723L504.38,37.863V49.568h-3.131V32.732h4.316l5.049,12.16,4.93-12.16H520V49.568h-3.223ZM75.6,18.07L82.658,6.086s-7.049-3.324-7.566,3.964c-0.205,2.9-2.006,4.017-3.671,4.017a3.322,3.322,0,0,1,.04-6.643,3.158,3.158,0,0,1,.688.072c1-3.2-2.079-4.184-3.86-3.2A4.2,4.2,0,0,0,65.945,0,3.832,3.832,0,0,0,63.6,4.3c-1.781-.983-4.855,0-3.86,3.2a3.155,3.155,0,0,1,.688-0.072,3.322,3.322,0,0,1,.04,6.643c-1.665,0-3.465-1.122-3.671-4.017-0.517-7.288-7.875-4.489-7.875-4.489L56.29,18.07H75.6Zm44.387,40.1c11.084-1.348,10.967-10.357,10.967-10.357-13.912,2.385-21.687-5.322-21.687-5.322s8.714,3.69,15.671-.013c6.833-3.638,5.89-11.3,5.89-11.3-16.105,5.273-21.918-.439-21.918-0.439s6.511,1.357,11.992-1.935c7.545-4.53,4.223-11.247,4.223-11.247-12.157,5.712-17.672,2.825-17.672,2.825s6.142-.126,9.589-6.968c2.692-5.345-1.766-9.439-1.766-9.439-6.112,9.068-15.846,7.755-22.453,11.567-4.387,2.531-.393,7.193-0.393,7.193,4.265-1.61,8.07,3.179,8.07,10.31,0,10.159-8.314,15.8-17.127,15.8-8.96,0-12.909-3.9-12.909-13.131,0-3.857.935-5.366,3.773-5.366a4.53,4.53,0,0,1,3.97,2.083,11.15,11.15,0,0,0,1.705-5.856c0-4.427-3.156-5.511-6.8-5.511H54.779c0,2.436.8,5.22,3.4,6.055,0,0-.855,7.028-1.847,14.767-0.642,5-4.577,6.959-8.909,6.959-8.275,0-17.156-5.256-17.156-15.8,0-6.07,3.267-12.052,8.07-10.31,1.5-1.694,2.8-4.933-.052-6.976-4.985-3.57-16.915-2.6-22.795-11.785,0,0-4.458,4.094-1.765,9.439,3.447,6.842,9.588,6.968,9.588,6.968S17.8,23.266,5.645,17.554c0,0-3.321,6.717,4.223,11.247,5.482,3.292,11.992,1.935,11.992,1.935s-5.812,5.712-21.918.439c0,0-.942,7.661,5.891,11.3,6.956,3.7,15.671.013,15.671,0.013S13.729,50.195-.184,47.81c0,0-.118,9.009,10.967,10.357,8.773,1.067,16.045-5.141,16.045-5.141s-2.241,8.512-22.75,11.355c0,0,5.139,9.039,17.609,5.838,8.328-2.138,13.363-9.469,13.363-9.469s-3.4,10.787-20.883,17.315c0,0,5.452,6.152,17.108,1.318,9.84-4.08,13.931-13.975,13.931-13.975S43.934,74.425,35.411,83.4a8.953,8.953,0,0,0,4.857-.262c8.1-3.32,13.2-8.654,14.518-17.017,0,0,2.362,2.286,1.776,6.823-0.808,6.256-11.216,13.28-11.216,13.28l1.417,2.12c-2.556,1.505-6.439,3.795-7.9,4.637-3.029-1.871-6.8-4.142-7.565-4.6-2.694-1.613-7.974-1.486-8.655,4.929,2.5-2.782,4.663-2.356,7.429-.968,0.467,0.234,2.8,1.594,4.911,2.885-1.383.8-2.349,1.361-2.508,1.456-2.694,1.613-5.082,6.332.237,9.969-1.262-3.524.136-5.23,2.666-7.013,0.234-.165,1.584-0.982,3.389-2.063,1.1,0.693,2.657,1.779,2.935,1.988,2.477,1.858,3.823,3.6,2.458,7.089,5.424-3.478,3.176-8.266.531-9.958-0.124-.079-1.345-0.935-2.1-1.4,1.016-.6,4.152-2.471,6.3-3.755l1.375,2.057,8.957-5.442a14.432,14.432,0,0,1,.062,3.436c-0.812,6.629-4.466,12.669-12.652,18.148a6.575,6.575,0,0,0,6.629,4.39c4.14,0,6.882-4.644,8.446-8.664-1.834,7.179-1.7,12.767,3.643,17.538,5.16-4.665,5.539-10.362,3.706-17.538,1.563,4.02,4.306,8.664,8.446,8.664a6.576,6.576,0,0,0,6.629-4.39c-8.186-5.479-11.84-11.519-12.652-18.148a14.413,14.413,0,0,1,.061-3.431l8.936,5.437,1.381-2.066c2.147,1.284,5.295,3.158,6.313,3.764-0.753.467-1.974,1.322-2.1,1.4-2.645,1.692-4.893,6.48.531,9.958-1.365-3.485-.019-5.231,2.458-7.089,0.278-.209,1.836-1.294,2.936-1.988,1.806,1.081,3.155,1.9,3.389,2.063,2.531,1.783,3.928,3.489,2.666,7.013,5.319-3.637,2.93-8.356.237-9.969-0.158-.095-1.125-0.655-2.508-1.456,2.107-1.291,4.444-2.651,4.91-2.885,2.766-1.388,4.928-1.814,7.43.968-0.681-6.415-5.961-6.542-8.655-4.929-0.77.461-4.536,2.732-7.565,4.6-1.461-.844-5.357-3.141-7.912-4.646L85.4,86.225s-10.289-7.041-11.2-13.28c-0.675-4.648,1.776-6.823,1.776-6.823,0.96,7.6,6.393,14.078,14.607,16.88a11.489,11.489,0,0,0,4.768.4c-8.523-8.976-9.795-17.993-9.795-17.993s4.091,9.9,13.931,13.975c11.656,4.834,17.108-1.318,17.108-1.318C99.119,71.537,95.719,60.75,95.719,60.75s5.035,7.331,13.364,9.469c12.471,3.2,17.609-5.838,17.609-5.838-20.509-2.843-22.75-11.355-22.75-11.355S111.213,59.234,119.987,58.167Z"></path>
</svg>