<svg width="166" height="111" viewBox="0 0 166 111" fill="none" xmlns="http://www.w3.org/2000/svg">
<path d="M42.6266 32.9799C44.6506 32.9799 46.4546 32.628 48.0386 31.924C49.6226 31.264 50.8546 30.296 51.7786 29.064C52.7026 27.832 53.1426 26.38 53.1426 24.752C53.1426 23.124 52.7906 21.76 52.1306 20.616C51.4266 19.472 50.2826 18.46 48.7426 17.536C47.2026 16.656 45.0466 15.776 42.3626 14.896C40.2946 14.236 38.7106 13.62 37.6106 13.048C36.4666 12.476 35.6746 11.86 35.1906 11.2C34.7066 10.54 34.4426 9.79195 34.4426 8.86795C34.4426 7.28395 35.1026 5.96395 36.3786 4.95195C37.6546 3.93995 39.2826 3.41195 41.3066 3.41195C43.4626 3.41195 45.3106 3.98395 46.7626 5.17195C48.2146 6.35995 49.1386 8.03195 49.5346 10.188L52.1746 9.65995C51.7786 6.97595 50.5906 4.86395 48.6106 3.23595C46.6306 1.65195 44.2106 0.859951 41.3506 0.859951C39.5026 0.859951 37.8306 1.21195 36.3786 1.87195C34.9266 2.57595 33.7826 3.54395 32.9906 4.73195C32.1546 5.96395 31.7586 7.32795 31.7586 8.86795C31.7586 10.232 32.0666 11.42 32.6826 12.344C33.2546 13.312 34.2666 14.1919 35.6746 14.94C37.0386 15.688 38.9746 16.4799 41.4386 17.316C43.7706 18.064 45.5746 18.812 46.8506 19.472C48.1266 20.176 49.0506 20.924 49.6226 21.76C50.1946 22.596 50.4586 23.608 50.4586 24.7959C50.4586 26.5119 49.7106 27.876 48.2586 28.888C46.8066 29.9 44.9146 30.428 42.6266 30.428C39.6786 30.428 37.4346 29.724 35.8066 28.272C34.1786 26.82 33.2546 24.708 33.0346 21.892L30.3506 22.288C30.5706 25.72 31.7586 28.36 33.9146 30.208C36.0706 32.056 38.9746 32.9799 42.6266 32.9799Z" fill="#B5B5B5"/>
<path d="M58.2376 8.99995H55.6856V32.32H58.2376V8.99995ZM58.5896 1.60795H55.2456V4.86395H58.5896V1.60795Z" fill="#B5B5B5"/>
<path d="M64.8033 32.32V17.448C64.8033 15.468 65.4633 13.84 66.7393 12.564C68.0153 11.332 69.6433 10.716 71.6673 10.716C73.6473 10.716 75.2313 11.332 76.3753 12.52C77.5193 13.708 78.0913 15.38 78.0913 17.448V32.32H80.6433V17.052C80.6433 14.368 79.8513 12.256 78.3113 10.672C76.7273 9.13195 74.6153 8.33995 71.9313 8.33995C70.4793 8.33995 69.1153 8.64795 67.8393 9.26395C66.5633 9.92395 65.5513 10.76 64.8033 11.86H64.7153V8.99995H62.2513V32.32H64.8033Z" fill="#B5B5B5"/>
<path d="M94.6226 42.88C96.4706 42.88 98.0986 42.4839 99.5066 41.6479C100.871 40.8559 101.971 39.712 102.719 38.216C103.467 36.764 103.863 35.048 103.863 33.112V8.99995H101.311V11.948H101.223C100.431 10.804 99.3746 9.92395 98.0986 9.26395C96.8226 8.64795 95.4146 8.33995 93.8746 8.33995C91.8946 8.33995 90.0906 8.86795 88.5506 9.87995C86.9666 10.936 85.7346 12.388 84.8546 14.28C83.9746 16.172 83.5346 18.284 83.5346 20.66C83.5346 23.036 83.9746 25.148 84.8546 26.996C85.6906 28.888 86.9226 30.34 88.4626 31.396C90.0026 32.452 91.7626 32.9799 93.7426 32.9799C95.4146 32.9799 96.9106 32.672 98.1866 32.012C99.4626 31.396 100.475 30.516 101.223 29.328H101.311V32.9799C101.311 35.312 100.739 37.116 99.5506 38.4799C98.3626 39.8439 96.6906 40.504 94.6226 40.504C92.9066 40.504 91.5426 40.108 90.4426 39.316C89.3426 38.524 88.4186 37.248 87.7586 35.532L85.4266 36.544C86.0866 38.524 87.2306 40.108 88.8586 41.208C90.4866 42.308 92.3786 42.88 94.6226 42.88ZM93.9186 30.56C92.3786 30.56 91.0586 30.12 89.8706 29.284C88.6826 28.448 87.7586 27.304 87.0986 25.808C86.4386 24.312 86.0866 22.596 86.0866 20.66C86.0866 18.724 86.4386 17.0079 87.0986 15.468C87.7586 13.972 88.6386 12.7839 89.8266 11.948C91.0146 11.112 92.3346 10.716 93.8746 10.716C95.2386 10.716 96.4706 11.024 97.6146 11.64C98.7586 12.3 99.6826 13.136 100.343 14.1919C101.003 15.248 101.311 16.392 101.311 17.668V23.564C101.311 24.84 101.003 25.984 100.343 27.04C99.6826 28.14 98.7586 28.976 97.6586 29.592C96.5146 30.252 95.2826 30.56 93.9186 30.56Z" fill="#B5B5B5"/>
<path d="M110.204 0.199951H107.652V32.32H110.204V0.199951Z" fill="#B5B5B5"/>
<path d="M123.942 32.9799C126.186 32.9799 128.166 32.452 129.794 31.396C131.422 30.384 132.698 28.844 133.622 26.776L131.51 25.544C130.586 27.348 129.574 28.668 128.386 29.46C127.198 30.252 125.702 30.648 123.898 30.648C121.478 30.648 119.586 29.768 118.134 28.008C116.682 26.292 115.978 24.048 115.934 21.32H134.194V20.132C134.194 17.8 133.754 15.732 132.918 13.928C132.082 12.124 130.85 10.76 129.31 9.79195C127.726 8.82395 125.922 8.33995 123.854 8.33995C121.786 8.33995 119.938 8.86795 118.354 9.87995C116.77 10.936 115.538 12.388 114.658 14.28C113.778 16.172 113.338 18.284 113.338 20.66C113.338 23.124 113.778 25.28 114.658 27.128C115.538 29.02 116.77 30.428 118.398 31.44C119.982 32.452 121.83 32.9799 123.942 32.9799ZM115.978 19.208C116.022 17.668 116.374 16.26 117.078 14.94C117.738 13.6639 118.706 12.608 119.894 11.816C121.082 11.068 122.402 10.672 123.854 10.672C126.142 10.672 127.99 11.464 129.398 13.048C130.806 14.676 131.554 16.7 131.598 19.208H115.978Z" fill="#B5B5B5"/>
<path d="M11.66 110.32C19.272 110.32 23.056 107.196 23.056 100.904C23.056 99.2761 22.66 97.8241 21.868 96.5481C21.076 95.2721 19.976 94.3481 18.568 93.7321V93.6441C19.624 93.0721 20.46 92.2361 21.032 91.1801C21.604 90.1681 21.912 88.9801 21.912 87.7041C21.912 86.1201 21.516 84.7121 20.768 83.4361C20.02 82.2041 18.92 81.2361 17.556 80.5321C16.192 79.8721 14.608 79.5201 12.848 79.5201H0V110.32H11.66ZM5.5 92.0601V84.4921H12.012C13.464 84.4921 14.564 84.8001 15.312 85.4601C16.06 86.1201 16.412 87.0441 16.412 88.2761C16.412 89.5081 16.06 90.4321 15.312 91.0921C14.564 91.7521 13.464 92.0601 12.012 92.0601H5.5ZM5.5 105.348V96.5481H12.364C14.124 96.5481 15.444 96.9001 16.28 97.6041C17.116 98.3081 17.556 99.4081 17.556 100.86C17.556 102.4 17.16 103.544 16.324 104.248C15.488 104.996 14.124 105.348 12.32 105.348H5.5Z" fill="#FFD300"/>
<path d="M33.8267 110.98C35.1027 110.98 36.3347 110.716 37.5227 110.232C38.6667 109.748 39.5907 109.088 40.2507 108.252H40.3387V110.32H45.4427V87.0001H40.1627V101.168C40.1627 102.664 39.7227 103.852 38.8867 104.776C38.0067 105.7 36.8627 106.14 35.4107 106.14C32.2867 106.14 30.7467 104.468 30.7467 101.168V87.0001H25.4667V102.268C25.4667 105.04 26.2147 107.152 27.6667 108.692C29.1187 110.232 31.1867 110.98 33.8267 110.98Z" fill="#FFD300"/>
<path d="M58.5808 110.98C60.2968 110.98 61.8808 110.672 63.2448 110.056C64.6088 109.484 65.7088 108.648 66.5008 107.592C67.2928 106.536 67.6888 105.348 67.6888 103.984C67.6888 102.092 67.0288 100.552 65.7088 99.3641C64.3448 98.2201 62.1448 97.1641 59.0208 96.1521C57.5688 95.6681 56.5128 95.3161 55.8528 95.0081C55.1928 94.7001 54.7088 94.4361 54.4888 94.1281C54.2248 93.8641 54.0928 93.5561 54.0928 93.1601C54.0928 92.5001 54.4008 91.9721 55.0168 91.4881C55.6328 91.0481 56.4248 90.8281 57.3928 90.8281C58.6248 90.8281 59.6808 91.1361 60.5608 91.7521C61.3968 92.4121 62.0128 93.3361 62.4088 94.5681L67.2048 93.2041C66.6768 91.1361 65.5328 89.5081 63.7288 88.2321C61.9248 86.9561 59.8128 86.3401 57.3928 86.3401C55.8088 86.3401 54.3568 86.6481 53.0808 87.2641C51.7608 87.8801 50.7048 88.7161 49.9568 89.7281C49.2088 90.7841 48.8128 91.9281 48.8128 93.2041C48.8128 94.9201 49.3848 96.3281 50.5728 97.3841C51.7608 98.4401 53.7408 99.4081 56.5128 100.288C58.1408 100.772 59.3288 101.212 60.1648 101.564C61.0008 101.96 61.5728 102.312 61.9248 102.664C62.2328 103.06 62.4088 103.5 62.4088 103.984C62.4088 104.732 62.0568 105.348 61.3528 105.788C60.6488 106.272 59.7248 106.492 58.5808 106.492C56.7768 106.492 55.3688 106.096 54.4448 105.304C53.4768 104.512 52.8168 103.236 52.4208 101.432L47.6248 102.664C48.0648 105.348 49.2088 107.372 51.1008 108.824C52.9928 110.276 55.4568 110.98 58.5808 110.98Z" fill="#FFD300"/>
<path d="M75.1627 87.0001H69.8827V110.32H75.1627V87.0001ZM75.2947 77.7161H69.7507V83.0401H75.2947V77.7161Z" fill="#FFD300"/>
<path d="M83.9833 110.32V96.1961C83.9833 94.7001 84.4233 93.5121 85.3033 92.5881C86.1833 91.7081 87.3713 91.2681 88.9113 91.2681C90.4513 91.2681 91.6393 91.7081 92.4753 92.5441C93.3113 93.4241 93.7073 94.6561 93.7073 96.1961V110.32H98.9873V95.3601C98.9873 92.6321 98.1953 90.4321 96.6113 88.8041C95.0273 87.1761 92.9153 86.3401 90.2753 86.3401C88.9993 86.3401 87.8113 86.6041 86.6233 87.0881C85.4353 87.5721 84.5113 88.2321 83.8513 89.0681H83.7633V87.0001H78.7033V110.32H83.9833Z" fill="#FFD300"/>
<path d="M112.381 110.98C114.625 110.98 116.561 110.496 118.277 109.572C119.949 108.648 121.313 107.24 122.369 105.392L118.497 102.576C117.617 103.94 116.693 104.908 115.769 105.48C114.801 106.096 113.657 106.404 112.381 106.404C110.753 106.404 109.433 105.832 108.421 104.688C107.409 103.588 106.837 102.092 106.749 100.2H123.073V98.3961C123.073 96.0201 122.633 93.9081 121.753 92.1041C120.829 90.3001 119.597 88.8481 117.969 87.8361C116.341 86.8241 114.449 86.3401 112.293 86.3401C110.181 86.3401 108.289 86.8681 106.661 87.8801C105.033 88.9361 103.757 90.3881 102.833 92.2361C101.909 94.1281 101.425 96.2401 101.425 98.6601C101.425 101.08 101.909 103.236 102.833 105.084C103.757 106.976 105.033 108.428 106.705 109.44C108.333 110.452 110.225 110.98 112.381 110.98ZM106.793 96.3281C106.881 94.7881 107.453 93.4681 108.509 92.4561C109.521 91.4441 110.797 90.9161 112.337 90.9161C113.965 90.9161 115.285 91.4001 116.253 92.3681C117.221 93.3801 117.749 94.7001 117.837 96.3281H106.793Z" fill="#FFD300"/>
<path d="M135.328 110.98C137.044 110.98 138.628 110.672 139.992 110.056C141.356 109.484 142.456 108.648 143.248 107.592C144.04 106.536 144.436 105.348 144.436 103.984C144.436 102.092 143.776 100.552 142.456 99.3641C141.092 98.2201 138.892 97.1641 135.768 96.1521C134.316 95.6681 133.26 95.3161 132.6 95.0081C131.94 94.7001 131.456 94.4361 131.236 94.1281C130.972 93.8641 130.84 93.5561 130.84 93.1601C130.84 92.5001 131.148 91.9721 131.764 91.4881C132.38 91.0481 133.172 90.8281 134.14 90.8281C135.372 90.8281 136.428 91.1361 137.308 91.7521C138.144 92.4121 138.76 93.3361 139.156 94.5681L143.952 93.2041C143.424 91.1361 142.28 89.5081 140.476 88.2321C138.672 86.9561 136.56 86.3401 134.14 86.3401C132.556 86.3401 131.104 86.6481 129.828 87.2641C128.508 87.8801 127.452 88.7161 126.704 89.7281C125.956 90.7841 125.56 91.9281 125.56 93.2041C125.56 94.9201 126.132 96.3281 127.32 97.3841C128.508 98.4401 130.488 99.4081 133.26 100.288C134.888 100.772 136.076 101.212 136.912 101.564C137.748 101.96 138.32 102.312 138.672 102.664C138.98 103.06 139.156 103.5 139.156 103.984C139.156 104.732 138.804 105.348 138.1 105.788C137.396 106.272 136.472 106.492 135.328 106.492C133.524 106.492 132.116 106.096 131.192 105.304C130.224 104.512 129.564 103.236 129.168 101.432L124.372 102.664C124.812 105.348 125.956 107.372 127.848 108.824C129.74 110.276 132.204 110.98 135.328 110.98Z" fill="#FFD300"/>
<path d="M156.266 110.98C157.982 110.98 159.566 110.672 160.93 110.056C162.294 109.484 163.394 108.648 164.186 107.592C164.978 106.536 165.374 105.348 165.374 103.984C165.374 102.092 164.714 100.552 163.394 99.3641C162.03 98.2201 159.83 97.1641 156.706 96.1521C155.254 95.6681 154.198 95.3161 153.538 95.0081C152.878 94.7001 152.394 94.4361 152.174 94.1281C151.91 93.8641 151.778 93.5561 151.778 93.1601C151.778 92.5001 152.086 91.9721 152.702 91.4881C153.318 91.0481 154.11 90.8281 155.078 90.8281C156.31 90.8281 157.366 91.1361 158.246 91.7521C159.082 92.4121 159.698 93.3361 160.094 94.5681L164.89 93.2041C164.362 91.1361 163.218 89.5081 161.414 88.2321C159.61 86.9561 157.498 86.3401 155.078 86.3401C153.494 86.3401 152.042 86.6481 150.766 87.2641C149.446 87.8801 148.39 88.7161 147.642 89.7281C146.894 90.7841 146.498 91.9281 146.498 93.2041C146.498 94.9201 147.07 96.3281 148.258 97.3841C149.446 98.4401 151.426 99.4081 154.198 100.288C155.826 100.772 157.014 101.212 157.85 101.564C158.686 101.96 159.258 102.312 159.61 102.664C159.918 103.06 160.094 103.5 160.094 103.984C160.094 104.732 159.742 105.348 159.038 105.788C158.334 106.272 157.41 106.492 156.266 106.492C154.462 106.492 153.054 106.096 152.13 105.304C151.162 104.512 150.502 103.236 150.106 101.432L145.31 102.664C145.75 105.348 146.894 107.372 148.786 108.824C150.678 110.276 153.142 110.98 156.266 110.98Z" fill="#FFD300"/>
<path fill-rule="evenodd" clip-rule="evenodd" d="M66.584 59.3201C66.584 68.142 73.762 75.3201 82.584 75.3201C91.4059 75.3201 98.584 68.142 98.584 59.3201C98.584 50.4981 91.4059 43.3201 82.584 43.3201C73.762 43.3201 66.584 50.4981 66.584 59.3201ZM96.5132 59.3201C96.5132 67 90.2654 73.2478 82.5855 73.2478C74.9056 73.2478 68.6563 67 68.6563 59.3201C68.6563 51.6401 74.9056 45.3909 82.5855 45.3909C90.2654 45.3909 96.5132 51.6386 96.5132 59.3201ZM80.5972 51.5505V62.0649C80.5972 62.0649 78.0481 59.5158 76.4703 57.9365C75.7962 57.2624 74.7027 57.2624 74.0286 57.9365C73.9168 58.0484 73.8049 58.1602 73.6945 58.2721C73.0204 58.9462 73.0204 60.0397 73.6945 60.7138L81.2919 68.3112C81.6157 68.635 82.0543 68.8176 82.5121 68.8176H82.6592C83.1169 68.8176 83.5556 68.6351 83.8794 68.3112L91.4768 60.7138C92.1509 60.0397 92.1509 58.9462 91.4768 58.2721C91.3664 58.1602 91.2531 58.0484 91.1427 57.9365C90.4686 57.2624 89.375 57.2624 88.7009 57.9365C87.1217 59.5158 84.5726 62.0649 84.5726 62.0649V51.5505C84.5726 50.5968 83.7998 49.8241 82.8461 49.8241H82.3237C81.37 49.8241 80.5972 50.5968 80.5972 51.5505H80.5972Z" fill="#5B5B5B"/>
</svg>
