<svg width="166" height="111" viewBox="0 0 166 111" fill="none" xmlns="http://www.w3.org/2000/svg">
<path d="M40.1217 32.9799C42.1457 32.9799 43.9497 32.628 45.5337 31.924C47.1177 31.264 48.3497 30.296 49.2737 29.064C50.1977 27.832 50.6377 26.38 50.6377 24.752C50.6377 23.124 50.2857 21.76 49.6257 20.616C48.9217 19.472 47.7777 18.46 46.2377 17.536C44.6977 16.656 42.5417 15.776 39.8577 14.896C37.7897 14.236 36.2057 13.62 35.1057 13.048C33.9617 12.476 33.1697 11.86 32.6857 11.2C32.2017 10.54 31.9377 9.79195 31.9377 8.86795C31.9377 7.28395 32.5977 5.96395 33.8737 4.95195C35.1497 3.93995 36.7777 3.41195 38.8017 3.41195C40.9577 3.41195 42.8057 3.98395 44.2577 5.17195C45.7097 6.35995 46.6337 8.03195 47.0297 10.188L49.6697 9.65995C49.2737 6.97595 48.0857 4.86395 46.1057 3.23595C44.1257 1.65195 41.7057 0.859951 38.8457 0.859951C36.9977 0.859951 35.3257 1.21195 33.8737 1.87195C32.4217 2.57595 31.2777 3.54395 30.4857 4.73195C29.6497 5.96395 29.2537 7.32795 29.2537 8.86795C29.2537 10.232 29.5617 11.42 30.1777 12.344C30.7497 13.312 31.7617 14.1919 33.1697 14.94C34.5337 15.688 36.4697 16.4799 38.9337 17.316C41.2657 18.064 43.0697 18.812 44.3457 19.472C45.6217 20.176 46.5457 20.924 47.1177 21.76C47.6897 22.596 47.9537 23.608 47.9537 24.7959C47.9537 26.5119 47.2057 27.876 45.7537 28.888C44.3017 29.9 42.4097 30.428 40.1217 30.428C37.1737 30.428 34.9297 29.724 33.3017 28.272C31.6737 26.82 30.7497 24.708 30.5297 21.892L27.8457 22.288C28.0657 25.72 29.2537 28.36 31.4097 30.208C33.5657 32.056 36.4697 32.9799 40.1217 32.9799Z" fill="#B5B5B5"/>
<path d="M62.6848 8.99995H57.0088V3.89595H54.4568V8.99995H51.0248V11.288H54.4568V27.656C54.4568 29.372 54.8528 30.56 55.6008 31.264C56.3488 31.968 57.5808 32.32 59.3848 32.32H61.4088V29.944H59.5168C58.5928 29.944 57.9328 29.768 57.5808 29.416C57.1848 29.064 57.0088 28.492 57.0088 27.7V11.288H62.6848V8.99995Z" fill="#B5B5B5"/>
<path d="M72.8677 32.9799C74.4077 32.9799 75.8597 32.672 77.1357 32.012C78.4117 31.396 79.3797 30.56 80.1277 29.46H80.2157V32.32H82.6797V8.99995H80.1277V23.872C80.1277 25.8519 79.5117 27.4799 78.3237 28.712C77.0917 29.9879 75.5077 30.604 73.5277 30.604C69.3037 30.604 67.1917 28.36 67.1917 23.872V8.99995H64.6397V24.356C64.6397 27.084 65.3437 29.196 66.7957 30.692C68.2477 32.232 70.2717 32.9799 72.8677 32.9799Z" fill="#B5B5B5"/>
<path d="M96.1822 32.9799C97.7222 32.9799 99.1742 32.672 100.494 32.012C101.77 31.396 102.826 30.516 103.574 29.416H103.662V32.32H106.17V0.199951H103.618V11.948H103.53C102.694 10.8479 101.682 9.96795 100.406 9.30795C99.1302 8.64795 97.7222 8.33995 96.1822 8.33995C94.2022 8.33995 92.3982 8.86795 90.8582 9.87995C89.2742 10.936 88.0422 12.388 87.1622 14.28C86.2822 16.172 85.8422 18.284 85.8422 20.66C85.8422 23.08 86.2822 25.192 87.1622 27.04C88.0422 28.932 89.2742 30.384 90.8582 31.396C92.3982 32.452 94.2022 32.9799 96.1822 32.9799ZM96.3582 30.604C94.8182 30.604 93.4102 30.164 92.2222 29.328C90.9902 28.492 90.0662 27.348 89.4062 25.852C88.7462 24.356 88.3942 22.64 88.3942 20.66C88.3942 18.724 88.7462 17.0079 89.4062 15.468C90.0662 13.972 90.9902 12.7839 92.1782 11.948C93.3662 11.112 94.6862 10.716 96.1822 10.716C97.5462 10.716 98.7782 11.024 99.9222 11.64C101.066 12.3 101.99 13.136 102.65 14.1919C103.31 15.248 103.618 16.392 103.618 17.668V23.564C103.618 24.84 103.31 25.984 102.65 27.084C101.99 28.184 101.066 29.02 99.9662 29.636C98.8662 30.2959 97.6342 30.604 96.3582 30.604Z" fill="#B5B5B5"/>
<path d="M112.727 8.99995H110.175V32.32H112.727V8.99995ZM113.079 1.60795H109.735V4.86395H113.079V1.60795Z" fill="#B5B5B5"/>
<path d="M126.64 32.9799C128.796 32.9799 130.688 32.452 132.316 31.396C133.944 30.384 135.176 28.932 136.1 27.04C137.024 25.192 137.464 23.08 137.464 20.66C137.464 18.24 137.024 16.128 136.1 14.236C135.176 12.388 133.944 10.936 132.316 9.87995C130.688 8.86795 128.796 8.33995 126.64 8.33995C124.528 8.33995 122.68 8.86795 121.052 9.87995C119.424 10.936 118.148 12.388 117.224 14.236C116.3 16.128 115.86 18.24 115.86 20.66C115.86 23.08 116.3 25.192 117.224 27.04C118.148 28.932 119.424 30.384 121.052 31.396C122.68 32.452 124.528 32.9799 126.64 32.9799ZM126.64 30.604C125.012 30.604 123.56 30.208 122.328 29.372C121.052 28.5359 120.084 27.392 119.424 25.852C118.764 24.356 118.412 22.64 118.412 20.66C118.412 18.68 118.764 16.964 119.424 15.424C120.084 13.928 121.052 12.7839 122.328 11.948C123.56 11.112 125.012 10.716 126.64 10.716C128.268 10.716 129.72 11.112 130.996 11.948C132.272 12.7839 133.24 13.928 133.9 15.424C134.56 16.964 134.912 18.68 134.912 20.66C134.912 22.64 134.56 24.356 133.9 25.852C133.24 27.392 132.272 28.5359 130.996 29.372C129.72 30.208 128.268 30.604 126.64 30.604Z" fill="#B5B5B5"/>
<path d="M12.034 110.32C19.646 110.32 23.43 107.196 23.43 100.904C23.43 99.2761 23.034 97.8241 22.242 96.5481C21.45 95.2721 20.35 94.3481 18.942 93.7321V93.6441C19.998 93.0721 20.834 92.2361 21.406 91.1801C21.978 90.1681 22.286 88.9801 22.286 87.7041C22.286 86.1201 21.89 84.7121 21.142 83.4361C20.394 82.2041 19.294 81.2361 17.93 80.5321C16.566 79.8721 14.982 79.5201 13.222 79.5201H0.374023V110.32H12.034ZM5.87402 92.0601V84.4921H12.386C13.838 84.4921 14.938 84.8001 15.686 85.4601C16.434 86.1201 16.786 87.0441 16.786 88.2761C16.786 89.5081 16.434 90.4321 15.686 91.0921C14.938 91.7521 13.838 92.0601 12.386 92.0601H5.87402ZM5.87402 105.348V96.5481H12.738C14.498 96.5481 15.818 96.9001 16.654 97.6041C17.49 98.3081 17.93 99.4081 17.93 100.86C17.93 102.4 17.534 103.544 16.698 104.248C15.862 104.996 14.498 105.348 12.694 105.348H5.87402Z" fill="#FFD300"/>
<path d="M34.2007 110.98C35.4767 110.98 36.7087 110.716 37.8967 110.232C39.0407 109.748 39.9647 109.088 40.6247 108.252H40.7127V110.32H45.8167V87.0001H40.5367V101.168C40.5367 102.664 40.0967 103.852 39.2607 104.776C38.3807 105.7 37.2367 106.14 35.7847 106.14C32.6607 106.14 31.1207 104.468 31.1207 101.168V87.0001H25.8407V102.268C25.8407 105.04 26.5887 107.152 28.0407 108.692C29.4927 110.232 31.5607 110.98 34.2007 110.98Z" fill="#FFD300"/>
<path d="M58.9549 110.98C60.6709 110.98 62.2549 110.672 63.6189 110.056C64.9829 109.484 66.0829 108.648 66.8749 107.592C67.6669 106.536 68.0629 105.348 68.0629 103.984C68.0629 102.092 67.4029 100.552 66.0829 99.3641C64.7189 98.2201 62.5189 97.1641 59.3949 96.1521C57.9429 95.6681 56.8869 95.3161 56.2269 95.0081C55.5669 94.7001 55.0829 94.4361 54.8629 94.1281C54.5989 93.8641 54.4669 93.5561 54.4669 93.1601C54.4669 92.5001 54.7749 91.9721 55.3909 91.4881C56.0069 91.0481 56.7989 90.8281 57.7669 90.8281C58.9989 90.8281 60.0549 91.1361 60.9349 91.7521C61.7709 92.4121 62.3869 93.3361 62.7829 94.5681L67.5789 93.2041C67.0509 91.1361 65.9069 89.5081 64.1029 88.2321C62.2989 86.9561 60.1869 86.3401 57.7669 86.3401C56.1829 86.3401 54.7309 86.6481 53.4549 87.2641C52.1349 87.8801 51.0789 88.7161 50.3309 89.7281C49.5829 90.7841 49.1869 91.9281 49.1869 93.2041C49.1869 94.9201 49.7589 96.3281 50.9469 97.3841C52.1349 98.4401 54.1149 99.4081 56.8869 100.288C58.5149 100.772 59.7029 101.212 60.5389 101.564C61.3749 101.96 61.9469 102.312 62.2989 102.664C62.6069 103.06 62.7829 103.5 62.7829 103.984C62.7829 104.732 62.4309 105.348 61.7269 105.788C61.0229 106.272 60.0989 106.492 58.9549 106.492C57.1509 106.492 55.7429 106.096 54.8189 105.304C53.8509 104.512 53.1909 103.236 52.7949 101.432L47.9989 102.664C48.4389 105.348 49.5829 107.372 51.4749 108.824C53.3669 110.276 55.8309 110.98 58.9549 110.98Z" fill="#FFD300"/>
<path d="M75.5367 87.0001H70.2567V110.32H75.5367V87.0001ZM75.6687 77.7161H70.1247V83.0401H75.6687V77.7161Z" fill="#FFD300"/>
<path d="M84.3573 110.32V96.1961C84.3573 94.7001 84.7973 93.5121 85.6773 92.5881C86.5573 91.7081 87.7453 91.2681 89.2853 91.2681C90.8253 91.2681 92.0133 91.7081 92.8493 92.5441C93.6853 93.4241 94.0813 94.6561 94.0813 96.1961V110.32H99.3613V95.3601C99.3613 92.6321 98.5693 90.4321 96.9853 88.8041C95.4013 87.1761 93.2893 86.3401 90.6493 86.3401C89.3733 86.3401 88.1853 86.6041 86.9973 87.0881C85.8093 87.5721 84.8853 88.2321 84.2253 89.0681H84.1373V87.0001H79.0773V110.32H84.3573Z" fill="#FFD300"/>
<path d="M112.755 110.98C114.999 110.98 116.935 110.496 118.651 109.572C120.323 108.648 121.687 107.24 122.743 105.392L118.871 102.576C117.991 103.94 117.067 104.908 116.143 105.48C115.175 106.096 114.031 106.404 112.755 106.404C111.127 106.404 109.807 105.832 108.795 104.688C107.783 103.588 107.211 102.092 107.123 100.2H123.447V98.3961C123.447 96.0201 123.007 93.9081 122.127 92.1041C121.203 90.3001 119.971 88.8481 118.343 87.8361C116.715 86.8241 114.823 86.3401 112.667 86.3401C110.555 86.3401 108.663 86.8681 107.035 87.8801C105.407 88.9361 104.131 90.3881 103.207 92.2361C102.283 94.1281 101.799 96.2401 101.799 98.6601C101.799 101.08 102.283 103.236 103.207 105.084C104.131 106.976 105.407 108.428 107.079 109.44C108.707 110.452 110.599 110.98 112.755 110.98ZM107.167 96.3281C107.255 94.7881 107.827 93.4681 108.883 92.4561C109.895 91.4441 111.171 90.9161 112.711 90.9161C114.339 90.9161 115.659 91.4001 116.627 92.3681C117.595 93.3801 118.123 94.7001 118.211 96.3281H107.167Z" fill="#FFD300"/>
<path d="M135.702 110.98C137.418 110.98 139.002 110.672 140.366 110.056C141.73 109.484 142.83 108.648 143.622 107.592C144.414 106.536 144.81 105.348 144.81 103.984C144.81 102.092 144.15 100.552 142.83 99.3641C141.466 98.2201 139.266 97.1641 136.142 96.1521C134.69 95.6681 133.634 95.3161 132.974 95.0081C132.314 94.7001 131.83 94.4361 131.61 94.1281C131.346 93.8641 131.214 93.5561 131.214 93.1601C131.214 92.5001 131.522 91.9721 132.138 91.4881C132.754 91.0481 133.546 90.8281 134.514 90.8281C135.746 90.8281 136.802 91.1361 137.682 91.7521C138.518 92.4121 139.134 93.3361 139.53 94.5681L144.326 93.2041C143.798 91.1361 142.654 89.5081 140.85 88.2321C139.046 86.9561 136.934 86.3401 134.514 86.3401C132.93 86.3401 131.478 86.6481 130.202 87.2641C128.882 87.8801 127.826 88.7161 127.078 89.7281C126.33 90.7841 125.934 91.9281 125.934 93.2041C125.934 94.9201 126.506 96.3281 127.694 97.3841C128.882 98.4401 130.862 99.4081 133.634 100.288C135.262 100.772 136.45 101.212 137.286 101.564C138.122 101.96 138.694 102.312 139.046 102.664C139.354 103.06 139.53 103.5 139.53 103.984C139.53 104.732 139.178 105.348 138.474 105.788C137.77 106.272 136.846 106.492 135.702 106.492C133.898 106.492 132.49 106.096 131.566 105.304C130.598 104.512 129.938 103.236 129.542 101.432L124.746 102.664C125.186 105.348 126.33 107.372 128.222 108.824C130.114 110.276 132.578 110.98 135.702 110.98Z" fill="#FFD300"/>
<path d="M156.64 110.98C158.356 110.98 159.94 110.672 161.304 110.056C162.668 109.484 163.768 108.648 164.56 107.592C165.352 106.536 165.748 105.348 165.748 103.984C165.748 102.092 165.088 100.552 163.768 99.3641C162.404 98.2201 160.204 97.1641 157.08 96.1521C155.628 95.6681 154.572 95.3161 153.912 95.0081C153.252 94.7001 152.768 94.4361 152.548 94.1281C152.284 93.8641 152.152 93.5561 152.152 93.1601C152.152 92.5001 152.46 91.9721 153.076 91.4881C153.692 91.0481 154.484 90.8281 155.452 90.8281C156.684 90.8281 157.74 91.1361 158.62 91.7521C159.456 92.4121 160.072 93.3361 160.468 94.5681L165.264 93.2041C164.736 91.1361 163.592 89.5081 161.788 88.2321C159.984 86.9561 157.872 86.3401 155.452 86.3401C153.868 86.3401 152.416 86.6481 151.14 87.2641C149.82 87.8801 148.764 88.7161 148.016 89.7281C147.268 90.7841 146.872 91.9281 146.872 93.2041C146.872 94.9201 147.444 96.3281 148.632 97.3841C149.82 98.4401 151.8 99.4081 154.572 100.288C156.2 100.772 157.388 101.212 158.224 101.564C159.06 101.96 159.632 102.312 159.984 102.664C160.292 103.06 160.468 103.5 160.468 103.984C160.468 104.732 160.116 105.348 159.412 105.788C158.708 106.272 157.784 106.492 156.64 106.492C154.836 106.492 153.428 106.096 152.504 105.304C151.536 104.512 150.876 103.236 150.48 101.432L145.684 102.664C146.124 105.348 147.268 107.372 149.16 108.824C151.052 110.276 153.516 110.98 156.64 110.98Z" fill="#FFD300"/>
<path fill-rule="evenodd" clip-rule="evenodd" d="M66.958 57.3201C66.958 66.142 74.1361 73.3201 82.958 73.3201C91.78 73.3201 98.958 66.142 98.958 57.3201C98.958 48.4981 91.78 41.3201 82.958 41.3201C74.1361 41.3201 66.958 48.4981 66.958 57.3201ZM96.8872 57.3201C96.8872 65 90.6394 71.2478 82.9595 71.2478C75.2796 71.2478 69.0303 65 69.0303 57.3201C69.0303 49.6401 75.2796 43.3909 82.9595 43.3909C90.6394 43.3909 96.8872 49.6386 96.8872 57.3201ZM80.9712 49.5505V60.0649C80.9712 60.0649 78.4221 57.5158 76.8444 55.9365C76.1703 55.2624 75.0767 55.2624 74.4026 55.9365C74.2908 56.0484 74.1789 56.1602 74.0685 56.2721C73.3944 56.9462 73.3944 58.0397 74.0685 58.7138L81.6659 66.3112C81.9897 66.635 82.4283 66.8176 82.8861 66.8176H83.0333C83.491 66.8176 83.9296 66.6351 84.2534 66.3112L91.8508 58.7138C92.5249 58.0397 92.5249 56.9462 91.8508 56.2721C91.7404 56.1602 91.6271 56.0484 91.5167 55.9365C90.8426 55.2624 89.7491 55.2624 89.075 55.9365C87.4957 57.5158 84.9466 60.0649 84.9466 60.0649V49.5505C84.9466 48.5968 84.1739 47.8241 83.2202 47.8241H82.6977C81.744 47.8241 80.9713 48.5968 80.9713 49.5505H80.9712Z" fill="#5B5B5B"/>
</svg>
