<svg width="166" height="111" viewBox="0 0 166 111" fill="none" xmlns="http://www.w3.org/2000/svg">
<path d="M43.6383 32.78C45.6623 32.78 47.4663 32.428 49.0503 31.724C50.6343 31.064 51.8663 30.096 52.7903 28.864C53.7143 27.632 54.1543 26.18 54.1543 24.552C54.1543 22.924 53.8023 21.56 53.1423 20.416C52.4383 19.272 51.2943 18.26 49.7543 17.336C48.2143 16.456 46.0583 15.576 43.3743 14.696C41.3063 14.036 39.7223 13.42 38.6223 12.848C37.4783 12.276 36.6863 11.66 36.2023 11C35.7183 10.34 35.4543 9.592 35.4543 8.668C35.4543 7.084 36.1143 5.764 37.3903 4.752C38.6663 3.74 40.2943 3.212 42.3183 3.212C44.4743 3.212 46.3223 3.784 47.7743 4.972C49.2263 6.16 50.1503 7.832 50.5463 9.988L53.1863 9.46C52.7903 6.776 51.6023 4.664 49.6223 3.036C47.6423 1.452 45.2223 0.66 42.3623 0.66C40.5143 0.66 38.8423 1.012 37.3903 1.672C35.9383 2.376 34.7943 3.344 34.0023 4.532C33.1663 5.764 32.7703 7.128 32.7703 8.668C32.7703 10.032 33.0783 11.22 33.6943 12.144C34.2663 13.112 35.2783 13.992 36.6863 14.74C38.0503 15.488 39.9863 16.28 42.4503 17.116C44.7823 17.864 46.5863 18.612 47.8623 19.272C49.1383 19.976 50.0623 20.724 50.6343 21.56C51.2063 22.396 51.4703 23.408 51.4703 24.596C51.4703 26.312 50.7223 27.676 49.2703 28.688C47.8183 29.7 45.9263 30.228 43.6383 30.228C40.6903 30.228 38.4463 29.524 36.8183 28.072C35.1903 26.62 34.2663 24.508 34.0463 21.692L31.3623 22.088C31.5823 25.52 32.7703 28.16 34.9263 30.008C37.0823 31.856 39.9863 32.78 43.6383 32.78Z" fill="#B5B5B5"/>
<path d="M59.2494 8.8H56.6974V32.12H59.2494V8.8ZM59.6014 1.408H56.2574V4.664H59.6014V1.408Z" fill="#B5B5B5"/>
<path d="M65.815 32.12V17.248C65.815 15.268 66.475 13.64 67.751 12.364C69.027 11.132 70.655 10.516 72.679 10.516C74.659 10.516 76.243 11.132 77.387 12.32C78.531 13.508 79.103 15.18 79.103 17.248V32.12H81.655V16.852C81.655 14.168 80.863 12.056 79.323 10.472C77.739 8.932 75.627 8.14 72.943 8.14C71.491 8.14 70.127 8.448 68.851 9.064C67.575 9.724 66.563 10.56 65.815 11.66H65.727V8.8H63.263V32.12H65.815Z" fill="#B5B5B5"/>
<path d="M95.6343 42.68C97.4823 42.68 99.1103 42.284 100.518 41.448C101.882 40.656 102.982 39.512 103.73 38.016C104.478 36.564 104.874 34.848 104.874 32.912V8.8H102.322V11.748H102.234C101.442 10.604 100.386 9.724 99.1103 9.064C97.8343 8.448 96.4263 8.14 94.8863 8.14C92.9063 8.14 91.1023 8.668 89.5623 9.68C87.9783 10.736 86.7463 12.188 85.8663 14.08C84.9863 15.972 84.5463 18.084 84.5463 20.46C84.5463 22.836 84.9863 24.948 85.8663 26.796C86.7023 28.688 87.9343 30.14 89.4743 31.196C91.0143 32.252 92.7743 32.78 94.7543 32.78C96.4263 32.78 97.9223 32.472 99.1983 31.812C100.474 31.196 101.486 30.316 102.234 29.128H102.322V32.78C102.322 35.112 101.75 36.916 100.562 38.28C99.3743 39.644 97.7023 40.304 95.6343 40.304C93.9183 40.304 92.5543 39.908 91.4543 39.116C90.3543 38.324 89.4303 37.048 88.7703 35.332L86.4383 36.344C87.0983 38.324 88.2423 39.908 89.8703 41.008C91.4983 42.108 93.3903 42.68 95.6343 42.68ZM94.9303 30.36C93.3903 30.36 92.0703 29.92 90.8823 29.084C89.6943 28.248 88.7703 27.104 88.1103 25.608C87.4503 24.112 87.0983 22.396 87.0983 20.46C87.0983 18.524 87.4503 16.808 88.1103 15.268C88.7703 13.772 89.6503 12.584 90.8383 11.748C92.0263 10.912 93.3463 10.516 94.8863 10.516C96.2503 10.516 97.4823 10.824 98.6263 11.44C99.7703 12.1 100.694 12.936 101.354 13.992C102.014 15.048 102.322 16.192 102.322 17.468V23.364C102.322 24.64 102.014 25.784 101.354 26.84C100.694 27.94 99.7703 28.776 98.6703 29.392C97.5263 30.052 96.2943 30.36 94.9303 30.36Z" fill="#B5B5B5"/>
<path d="M111.216 0H108.664V32.12H111.216V0Z" fill="#B5B5B5"/>
<path d="M124.953 32.78C127.197 32.78 129.177 32.252 130.805 31.196C132.433 30.184 133.709 28.644 134.633 26.576L132.521 25.344C131.597 27.148 130.585 28.468 129.397 29.26C128.209 30.052 126.713 30.448 124.909 30.448C122.489 30.448 120.597 29.568 119.145 27.808C117.693 26.092 116.989 23.848 116.945 21.12H135.205V19.932C135.205 17.6 134.765 15.532 133.929 13.728C133.093 11.924 131.861 10.56 130.321 9.592C128.737 8.624 126.933 8.14 124.865 8.14C122.797 8.14 120.949 8.668 119.365 9.68C117.781 10.736 116.549 12.188 115.669 14.08C114.789 15.972 114.349 18.084 114.349 20.46C114.349 22.924 114.789 25.08 115.669 26.928C116.549 28.82 117.781 30.228 119.409 31.24C120.993 32.252 122.841 32.78 124.953 32.78ZM116.989 19.008C117.033 17.468 117.385 16.06 118.089 14.74C118.749 13.464 119.717 12.408 120.905 11.616C122.093 10.868 123.413 10.472 124.865 10.472C127.153 10.472 129.001 11.264 130.409 12.848C131.817 14.476 132.565 16.5 132.609 19.008H116.989Z" fill="#B5B5B5"/>
<path d="M35.892 110.78C38.048 110.78 39.984 110.428 41.7 109.68C43.372 108.932 44.692 107.92 45.616 106.6C46.54 105.28 46.98 103.74 46.98 102.024C46.98 99.6041 46.144 97.6241 44.516 95.9961C42.888 94.3681 40.116 92.9161 36.2 91.5961C33.78 90.8041 32.108 90.1001 31.228 89.4401C30.348 88.8241 29.908 88.0761 29.908 87.1521C29.908 86.0961 30.348 85.2601 31.228 84.6001C32.064 83.9841 33.208 83.6761 34.66 83.6761C36.288 83.6761 37.564 84.1161 38.576 84.9521C39.588 85.7881 40.292 87.1081 40.776 88.8241L46.144 87.6801C45.66 84.9521 44.34 82.7521 42.272 81.1241C40.16 79.4961 37.608 78.6601 34.66 78.6601C32.68 78.6601 30.92 79.0121 29.38 79.7161C27.84 80.4641 26.608 81.4761 25.772 82.7521C24.892 84.0281 24.452 85.5241 24.452 87.1521C24.452 89.2641 25.2 91.0241 26.696 92.4761C28.192 93.9281 30.744 95.2921 34.308 96.4801C36.2 97.0961 37.652 97.6681 38.664 98.1961C39.676 98.7241 40.38 99.2961 40.82 99.8681C41.26 100.484 41.48 101.232 41.48 102.068C41.48 103.212 40.996 104.092 40.028 104.752C39.016 105.412 37.696 105.764 35.98 105.764C33.648 105.764 31.932 105.236 30.744 104.136C29.556 103.036 28.808 101.276 28.412 98.8561L23 99.9561C23.484 103.476 24.848 106.16 27.048 108.008C29.204 109.856 32.152 110.78 35.892 110.78Z" fill="#FFD300"/>
<path d="M62.06 86.8001H56.296V81.1241H51.016V86.8001H47.188V91.5081H51.016V103.344C51.016 105.808 51.588 107.568 52.688 108.58C53.788 109.592 55.68 110.12 58.276 110.12H61.092V105.06H58.76C57.836 105.06 57.176 104.928 56.824 104.62C56.472 104.356 56.296 103.828 56.296 103.08V91.5081H62.06V86.8001Z" fill="#FFD300"/>
<path d="M72.3161 110.78C73.5921 110.78 74.8241 110.516 76.0121 110.032C77.1561 109.548 78.0801 108.888 78.7401 108.052H78.8281V110.12H83.9321V86.8001H78.6521V100.968C78.6521 102.464 78.2121 103.652 77.3761 104.576C76.4961 105.5 75.3521 105.94 73.9001 105.94C70.7761 105.94 69.2361 104.268 69.2361 100.968V86.8001H63.9561V102.068C63.9561 104.84 64.7041 106.952 66.1561 108.492C67.6081 110.032 69.6761 110.78 72.3161 110.78Z" fill="#FFD300"/>
<path d="M96.9822 110.78C98.3902 110.78 99.6662 110.516 100.854 109.988C101.998 109.504 102.922 108.8 103.626 107.964H103.714V110.12H108.642V78.0001H103.362V88.5161H103.274C102.526 87.7681 101.602 87.1521 100.546 86.7561C99.4462 86.3601 98.3022 86.1401 97.0262 86.1401C95.0022 86.1401 93.1982 86.6681 91.6142 87.7241C90.0302 88.7801 88.7982 90.2321 87.9182 92.0801C86.9942 93.9721 86.5542 96.0841 86.5542 98.4601C86.5542 100.836 86.9942 102.948 87.9182 104.796C88.7982 106.688 90.0302 108.14 91.6142 109.196C93.1982 110.252 95.0022 110.78 96.9822 110.78ZM97.8622 105.94C95.9702 105.94 94.5182 105.28 93.4622 103.916C92.3622 102.596 91.8342 100.792 91.8342 98.4601C91.8342 96.1281 92.3622 94.3241 93.4182 92.9601C94.4742 91.6401 95.9262 90.9801 97.7742 90.9801C99.4022 90.9801 100.722 91.5081 101.778 92.5641C102.834 93.6641 103.362 94.9841 103.362 96.5681V100.308C103.362 101.936 102.834 103.256 101.778 104.312C100.722 105.412 99.4022 105.94 97.8622 105.94Z" fill="#FFD300"/>
<path d="M117.433 86.8001H112.153V110.12H117.433V86.8001ZM117.565 77.5161H112.021V82.8401H117.565V77.5161Z" fill="#FFD300"/>
<path d="M131.402 110.78C133.646 110.78 135.626 110.252 137.342 109.24C139.058 108.228 140.378 106.776 141.346 104.884C142.27 103.036 142.754 100.88 142.754 98.4601C142.754 96.0401 142.27 93.8841 141.346 91.9921C140.378 90.1441 139.058 88.6921 137.342 87.6801C135.626 86.6681 133.646 86.1401 131.402 86.1401C129.158 86.1401 127.222 86.6681 125.506 87.6801C123.79 88.6921 122.47 90.1441 121.546 91.9921C120.578 93.8841 120.094 96.0401 120.094 98.4601C120.094 100.88 120.578 103.036 121.546 104.884C122.47 106.776 123.79 108.228 125.506 109.24C127.222 110.252 129.158 110.78 131.402 110.78ZM131.402 105.94C129.51 105.94 128.058 105.28 127.002 103.96C125.902 102.64 125.374 100.792 125.374 98.4601C125.374 96.1281 125.902 94.2801 127.002 92.9601C128.058 91.6401 129.51 90.9801 131.402 90.9801C133.294 90.9801 134.79 91.6401 135.89 92.9601C136.946 94.3241 137.474 96.1281 137.474 98.4601C137.474 100.792 136.946 102.596 135.89 103.916C134.79 105.28 133.294 105.94 131.402 105.94Z" fill="#FFD300"/>
<path fill-rule="evenodd" clip-rule="evenodd" d="M67.5957 59.1201C67.5957 67.9421 74.7738 75.1201 83.5957 75.1201C92.4177 75.1201 99.5957 67.9421 99.5957 59.1201C99.5957 50.2982 92.4177 43.1201 83.5957 43.1201C74.7738 43.1201 67.5957 50.2982 67.5957 59.1201V59.1201ZM97.5249 59.1201C97.5249 66.8 91.2771 73.0478 83.5972 73.0478C75.9173 73.0478 69.668 66.8 69.668 59.1201C69.668 51.4402 75.9173 45.1909 83.5972 45.1909C91.2771 45.1909 97.5249 51.4387 97.5249 59.1201ZM81.6089 51.3505V61.865C81.6089 61.865 79.0598 59.3158 77.4821 57.7366C76.808 57.0625 75.7144 57.0625 75.0403 57.7366C74.9285 57.8484 74.8166 57.9603 74.7062 58.0722C74.0321 58.7462 74.0321 59.8398 74.7062 60.5139L82.3036 68.1113C82.6274 68.4351 83.066 68.6176 83.5238 68.6176H83.6709C84.1287 68.6176 84.5673 68.4351 84.8911 68.1113L92.4885 60.5139C93.1626 59.8398 93.1626 58.7462 92.4885 58.0722C92.3781 57.9603 92.2648 57.8484 92.1544 57.7366C91.4803 57.0625 90.3868 57.0625 89.7127 57.7366C88.1334 59.3158 85.5843 61.865 85.5843 61.865V51.3505C85.5843 50.3968 84.8116 49.6241 83.8579 49.6241H83.3354C82.3817 49.6241 81.609 50.3968 81.609 51.3505H81.6089Z" fill="#5B5B5B"/>
</svg>
